<?xml version="1.0" encoding="utf-8"?>
<!-- Generator: Adobe Illustrator 16.0.0, SVG Export Plug-In . SVG Version: 6.00 Build 0)  -->
<!DOCTYPE svg PUBLIC "-//W3C//DTD SVG 1.1//EN" "http://www.w3.org/Graphics/SVG/1.1/DTD/svg11.dtd">
<svg version="1.1" id="Layer_1" xmlns="http://www.w3.org/2000/svg" xmlns:xlink="http://www.w3.org/1999/xlink" x="0px" y="0px"
	 width="37.173px" height="45.498px" viewBox="0 0 37.173 45.498" enable-background="new 0 0 37.173 45.498" xml:space="preserve">
<path fill="#56C2B6" d="M7.004,37.013c0.093,0.195,0.288,0.332,0.518,0.332c0.145,0,0.275-0.06,0.377-0.148l4.883-4.885
	l-5.778-5.777V37.013z"/>
<path fill="#C0DA71" d="M7.531,7.404c0.146,0,0.275,0.059,0.377,0.147L24.987,24.49H12.979l-5.964-5.965V7.734
	C7.107,7.54,7.302,7.404,7.531,7.404z"/>
<path fill="#C0DA71" d="M30.925,37.013c-0.093,0.195-0.287,0.332-0.518,0.332c-0.145,0-0.274-0.06-0.377-0.148l-4.883-4.885
	l5.777-5.777V37.013z"/>
<path fill="#56C2B6" d="M30.433,7.408c-0.146,0-0.274,0.059-0.377,0.147L12.978,24.494h0.002l4.933,4.934
	c0.282,0.257,0.652,0.418,1.063,0.418c0.432,0,0.822-0.175,1.108-0.455L30.95,18.529V7.738C30.856,7.543,30.663,7.408,30.433,7.408z
	"/>
</svg>
